<svg xmlns="http://www.w3.org/2000/svg" viewBox="0 0 64 64">
  <defs>
    <linearGradient id="lg" x1="0" y1="0" x2="1" y2="1">
      <stop offset="0" stop-color="#34e0a1"/>
      <stop offset="1" stop-color="#1fb7d4"/>
    </linearGradient>
  </defs>
  <path d="M36.6 6.2 55.9 25.5a6 6 0 0 1 0 8.5L34.1 55.8a6 6 0 0 1-8.5 0L6.3 36.5A6 6 0 0 1 4.5 32.2l.3-19.9A6 6 0 0 1 10.7 6.4l19.9-.2a6 6 0 0 1 4.3 1.7 6 6 0 0 1 1.7 0Z" fill="url(#lg)"/>
  <circle cx="17.5" cy="17.5" r="4.2" fill="#0b1220"/>
  <path d="M24 38.5l6.5 6.5L45 30.5" fill="none" stroke="#0b1220" stroke-width="5" stroke-linecap="round" stroke-linejoin="round"/>
</svg>
